<svg width="10" height="8" viewBox="0 0 8 5" fill="none" xmlns="http://www.w3.org/2000/svg"><path d="M7.41368 0.630469C7.39004 0.573363 7.34999 0.524549 7.29861 0.490201C7.24722 0.455853 7.18681 0.437513 7.125 0.4375H0.875002C0.81316 0.437451 0.752693 0.455753 0.701258 0.490087C0.649822 0.524422 0.60973 0.573246 0.586057 0.630378C0.562385 0.68751 0.556196 0.750382 0.568274 0.811033C0.580352 0.871685 0.610155 0.927389 0.653908 0.971094L3.77891 4.09609C3.80793 4.12515 3.8424 4.1482 3.88033 4.16392C3.91827 4.17965 3.95894 4.18775 4 4.18775C4.04107 4.18775 4.08173 4.17965 4.11967 4.16392C4.15761 4.1482 4.19207 4.12515 4.2211 4.09609L7.3461 0.971094C7.38979 0.927366 7.41953 0.871664 7.43156 0.811032C7.44359 0.750401 7.43736 0.687564 7.41368 0.630469Z" fill="#000000"></path></svg>